<?xml version="1.0" standalone="no"?>
<!DOCTYPE svg PUBLIC "-//W3C//DTD SVG 20010904//EN"
 "http://www.w3.org/TR/2001/REC-SVG-20010904/DTD/svg10.dtd">
<svg version="1.0" xmlns="http://www.w3.org/2000/svg"
 width="500.000000pt" height="500.000000pt" viewBox="0 0 500.000000 500.000000"
 preserveAspectRatio="xMidYMid meet">
<metadata>
Created by potrace 1.16, written by Peter Selinger 2001-2019
</metadata>
<g transform="translate(0.000000,500.000000) scale(0.100000,-0.100000)"
fill="#000000" stroke="none">
<path d="M0 2500 l0 -2500 2500 0 2500 0 0 2500 0 2500 -2500 0 -2500 0 0
-2500z m2742 1176 c227 -49 450 -204 571 -398 206 -331 188 -727 -54 -1149
-119 -208 -251 -370 -528 -651 l-174 -177 -96 90 c-198 186 -402 420 -529 606
l-68 101 -62 -39 c-34 -21 -64 -39 -67 -39 -3 0 -5 19 -3 42 l3 42 205 133
c113 73 209 131 215 129 5 -1 12 -17 16 -34 6 -31 5 -33 -112 -108 -66 -42
-121 -79 -124 -84 -7 -11 131 -208 229 -326 49 -59 156 -175 237 -258 l147
-151 78 75 c574 551 813 1018 743 1449 -42 263 -222 499 -470 615 -121 58
-185 71 -344 71 -158 0 -223 -14 -341 -69 -236 -112 -399 -307 -464 -555 -30
-114 -23 -411 10 -445 5 -5 46 16 95 48 47 31 91 56 97 56 17 0 78 -23 78 -30
0 -5 -352 -231 -371 -238 -5 -2 -9 15 -9 38 0 30 6 46 21 59 20 16 20 17 3
101 -27 126 -24 330 4 435 25 89 85 221 132 291 121 175 343 324 548 368 87
19 298 20 384 2z m163 -884 c-48 -273 -90 -500 -94 -504 -3 -4 -65 39 -136 96
-72 57 -133 102 -136 100 -3 -2 -52 -70 -110 -153 -57 -82 -107 -146 -110
-143 -4 4 -23 95 -44 202 -20 107 -41 215 -46 240 l-10 45 -155 60 c-84 33
-154 62 -154 65 1 11 1075 508 1078 499 2 -5 -36 -233 -83 -507z m-776 -317
c-8 -7 -133 -88 -279 -181 -146 -92 -275 -174 -287 -182 -23 -14 -23 -14 -23
31 l0 45 293 187 292 186 9 -36 c6 -27 5 -40 -5 -50z"/>
<path d="M2485 3009 c-231 -109 -418 -202 -416 -207 4 -7 158 -72 172 -72 4 0
107 57 229 126 122 69 223 124 224 122 2 -1 -52 -79 -120 -172 l-124 -168 156
-125 c87 -68 160 -120 164 -116 4 4 37 181 74 393 37 212 69 393 72 403 3 9 2
17 -3 16 -4 -1 -197 -91 -428 -200z"/>
<path d="M2415 2765 c-65 -41 -122 -78 -126 -82 -10 -10 31 -233 42 -233 3 0
10 28 13 63 12 105 16 112 102 212 84 96 98 115 91 115 -2 0 -57 -34 -122 -75z"/>
</g>
</svg>
