<?xml version="1.0" standalone="no"?>
<!DOCTYPE svg PUBLIC "-//W3C//DTD SVG 20010904//EN"
 "http://www.w3.org/TR/2001/REC-SVG-20010904/DTD/svg10.dtd">
<svg version="1.0" xmlns="http://www.w3.org/2000/svg"
 width="225.000000pt" height="225.000000pt" viewBox="0 0 225.000000 225.000000"
 preserveAspectRatio="xMidYMid meet">
<metadata>
Created by potrace 1.16, written by Peter Selinger 2001-2019
</metadata>
<g transform="translate(0.000000,225.000000) scale(0.100000,-0.100000)"
fill="#000000" stroke="none">
<path d="M933 2136 c-295 -56 -554 -242 -706 -507 l-26 -47 171 -129 170 -130
41 81 c29 58 60 100 111 151 208 207 513 241 754 86 l59 -39 148 148 147 148
-58 46 c-79 63 -260 150 -364 177 -108 28 -338 35 -447 15z"/>
<path d="M1130 1115 l0 -195 276 0 276 0 -7 -32 c-20 -90 -87 -196 -158 -250
l-44 -33 160 -123 c89 -69 165 -121 173 -118 27 11 146 174 189 261 83 167
125 401 104 580 -5 48 -12 92 -15 96 -3 5 -219 9 -480 9 l-474 0 0 -195z"/>
</g>
</svg>
