<?xml version="1.0" standalone="no"?>
<!DOCTYPE svg PUBLIC "-//W3C//DTD SVG 20010904//EN"
 "http://www.w3.org/TR/2001/REC-SVG-20010904/DTD/svg10.dtd">
<svg version="1.0" xmlns="http://www.w3.org/2000/svg"
 width="1920.000000pt" height="1920.000000pt" viewBox="0 0 1920.000000 1920.000000"
 preserveAspectRatio="xMidYMid meet">
<metadata>
Created by potrace 1.16, written by Peter Selinger 2001-2019
</metadata>
<g transform="translate(0.000000,1920.000000) scale(0.100000,-0.100000)"
fill="#000000" stroke="none">
<path d="M7115 14265 c-209 -40 -425 -81 -480 -89 -302 -46 -475 -138 -553
-292 -45 -89 -52 -142 -56 -422 -10 -676 53 -1490 169 -2177 214 -1265 618
-2288 1177 -2986 322 -403 760 -814 1198 -1126 353 -250 699 -456 1175 -698
443 -225 796 -382 1890 -840 198 -83 272 -99 429 -92 138 6 217 26 336 88 127
65 242 174 318 300 34 56 410 942 429 1012 25 90 25 318 -1 407 -46 158 -114
268 -234 381 -100 94 -137 113 -558 292 -186 80 -553 236 -814 347 -261 112
-507 216 -547 232 -302 119 -635 52 -864 -174 -63 -62 -136 -167 -168 -242
-25 -57 -83 -121 -135 -149 -32 -17 -58 -22 -121 -22 -97 0 -123 12 -298 144
-716 537 -1232 1217 -1583 2088 -95 234 -194 545 -194 607 0 154 90 247 273
280 182 34 327 111 441 238 126 139 196 314 196 495 0 67 -123 1227 -185 1753
-18 150 -53 266 -106 358 -46 77 -189 218 -269 265 -113 65 -205 90 -355 93
-127 3 -140 1 -510 -71z"/>
</g>
</svg>
